<?xml version="1.0" encoding="utf-8"?>
<!-- Generator: Adobe Illustrator 21.1.0, SVG Export Plug-In . SVG Version: 6.00 Build 0)  -->
<svg version="1.1" id="Calque_1" xmlns="http://www.w3.org/2000/svg" xmlns:xlink="http://www.w3.org/1999/xlink" x="0px" y="0px"
	 viewBox="0 0 367.7 367.7" style="enable-background:new 0 0 367.7 367.7;" xml:space="preserve">
<style type="text/css">
	.st0{fill:#FFFFFF;}
	.st1{fill:#FF0043;}
</style>
<g>
	<circle class="st0" cx="183.9" cy="183.9" r="183.9"/>
	<path class="st1" d="M125.8,181.2H80.6c-1.4-5.7-2.2-12.7-2.2-21c0-7.9,0.7-14.9,2.2-21h45.2v-19.4c0-34.1,8.5-60,25.6-77.8
		c17-17.8,41.9-26.6,74.6-26.6c9,0,16.9,0.5,23.7,1.3c6.7,0.9,13,2.2,19.1,4C243.3,7.5,214.5,0,183.9,0C82.3,0,0,82.3,0,183.9
		c0,81.3,52.7,150.2,125.8,174.5V181.2z"/>
	<path class="st1" d="M269,20.9c-0.7,8.9-1.7,16.6-3,23.1c-1.3,6.5-3,13.1-5.1,19.9c-3.6-0.7-7.8-1.5-12.7-2.4
		c-4.8-0.9-10.7-1.3-17.5-1.3c-7.9,0-15,0.8-21.3,2.4c-6.3,1.6-11.7,4.7-16.1,9.2c-4.5,4.5-8,10.8-10.5,18.8
		c-2.5,8.1-3.8,18.4-3.8,31v17.8h70.5c1.1,7.2,1.6,14.5,1.6,22.1c0,6.8-0.5,13.5-1.6,19.9h-70.5v186.5c1.6,0,3.2,0.1,4.8,0.1
		c101.5,0,183.9-82.3,183.9-183.9C367.7,113,327.7,51.6,269,20.9z"/>
</g>
</svg>
