<?xml version="1.0" encoding="utf-8"?>
<!-- Generator: Adobe Illustrator 21.1.0, SVG Export Plug-In . SVG Version: 6.00 Build 0)  -->
<svg version="1.1" id="Calque_1" xmlns="http://www.w3.org/2000/svg" xmlns:xlink="http://www.w3.org/1999/xlink" x="0px" y="0px"
	 viewBox="0 0 148 42" style="enable-background:new 0 0 148 42;" xml:space="preserve">
<style type="text/css">
	.st0{fill:#EAEAEA;}
	.st1{fill:#BF0005;}
</style>
<g>
	<path class="st0" d="M8.2,16H5.9c-0.1-0.3-0.1-0.6-0.1-1.1c0-0.4,0-0.8,0.1-1.1h2.3v-1c0-1.7,0.4-3,1.3-3.9
		c0.9-0.9,2.1-1.3,3.8-1.3c0.5,0,0.9,0,1.2,0.1c0.3,0,0.7,0.1,1,0.2c0,0.5-0.1,0.8-0.2,1.2c-0.1,0.3-0.1,0.7-0.3,1
		c-0.2,0-0.4-0.1-0.6-0.1c-0.2,0-0.5-0.1-0.9-0.1c-0.4,0-0.8,0-1.1,0.1c-0.3,0.1-0.6,0.2-0.8,0.5c-0.2,0.2-0.4,0.5-0.5,1
		s-0.2,0.9-0.2,1.6v0.9h3.6c0.1,0.4,0.1,0.7,0.1,1.1c0,0.3,0,0.7-0.1,1h-3.6v11.8c-0.2,0-0.4,0.1-0.7,0.1c-0.2,0-0.5,0-0.7,0
		c-0.2,0-0.4,0-0.7,0c-0.3,0-0.5,0-0.7-0.1V16z"/>
	<path class="st0" d="M17.3,13.9c0.2,0,0.4-0.1,0.6-0.1c0.2,0,0.4,0,0.6,0s0.4,0,0.6,0c0.2,0,0.4,0,0.5,0.1c0.1,0.3,0.1,0.6,0.2,1.1
		c0.1,0.4,0.1,0.8,0.1,1.1c0.4-0.6,0.9-1.2,1.5-1.6s1.4-0.7,2.4-0.7c0.1,0,0.3,0,0.4,0s0.3,0,0.4,0c0,0.2,0.1,0.3,0.1,0.5
		c0,0.2,0,0.4,0,0.6c0,0.2,0,0.4,0,0.7s-0.1,0.5-0.1,0.7c-0.1,0-0.3-0.1-0.4-0.1s-0.3,0-0.4,0c-0.5,0-1,0.1-1.4,0.2
		c-0.4,0.1-0.8,0.4-1.2,0.7c-0.4,0.3-0.6,0.8-0.8,1.4C20.1,19.2,20,20,20,20.9v6.9c-0.2,0-0.4,0.1-0.7,0.1c-0.2,0-0.5,0-0.7,0
		c-0.2,0-0.4,0-0.7,0c-0.2,0-0.5,0-0.7-0.1V13.9z"/>
	<path class="st0" d="M29,21.5c0,1.5,0.4,2.6,1.2,3.4c0.8,0.7,1.9,1.1,3.3,1.1c1.3,0,2.5-0.2,3.7-0.7c0.1,0.3,0.3,0.6,0.4,1
		c0.1,0.4,0.1,0.8,0.2,1.2c-0.6,0.3-1.3,0.4-2,0.6c-0.7,0.1-1.5,0.2-2.4,0.2c-1.3,0-2.4-0.2-3.3-0.5c-0.9-0.4-1.7-0.9-2.2-1.5
		s-1-1.4-1.3-2.3C26.3,23,26.2,22,26.2,21c0-1,0.1-2,0.4-2.9c0.3-0.9,0.7-1.7,1.2-2.3c0.5-0.7,1.2-1.2,2.1-1.6
		c0.8-0.4,1.8-0.6,2.9-0.6c1,0,1.8,0.2,2.5,0.5c0.7,0.3,1.3,0.8,1.8,1.3c0.5,0.6,0.9,1.3,1.1,2s0.4,1.6,0.4,2.6c0,0.3,0,0.5,0,0.8
		c0,0.3,0,0.5-0.1,0.7H29z M36,19.5c0-0.5-0.1-1-0.2-1.5c-0.1-0.5-0.3-0.9-0.6-1.2s-0.6-0.6-1-0.8c-0.4-0.2-0.9-0.3-1.5-0.3
		c-1.1,0-2,0.3-2.5,1c-0.6,0.7-0.9,1.6-1.1,2.8H36z"/>
	<path class="st0" d="M51.1,7.9c0.2,0,0.4-0.1,0.7-0.1c0.3,0,0.5,0,0.7,0c0.2,0,0.4,0,0.7,0c0.2,0,0.5,0,0.7,0.1v19.6
		c-0.7,0.2-1.5,0.4-2.3,0.5c-0.9,0.1-1.8,0.2-2.9,0.2c-1,0-1.9-0.1-2.8-0.4s-1.6-0.6-2.3-1.2s-1.2-1.3-1.6-2.2s-0.6-2-0.6-3.3
		c0-1.1,0.2-2.2,0.5-3.1c0.3-0.9,0.8-1.7,1.4-2.4c0.6-0.7,1.4-1.2,2.2-1.5c0.9-0.4,1.8-0.5,2.9-0.5c0.5,0,0.9,0,1.4,0.1
		c0.5,0.1,0.9,0.2,1.3,0.3V7.9z M51.1,16.2c-0.4-0.1-0.8-0.3-1.2-0.3c-0.4-0.1-0.9-0.1-1.4-0.1c-0.7,0-1.4,0.1-1.9,0.4
		c-0.5,0.3-1,0.6-1.3,1.1c-0.4,0.5-0.6,1-0.8,1.7s-0.3,1.3-0.3,2.1c0,1.7,0.4,3,1.2,3.7s1.9,1.1,3.3,1.1c0.5,0,0.9,0,1.3-0.1
		c0.4,0,0.8-0.1,1.1-0.2V16.2z"/>
	<path class="st0" d="M64.6,7.9c0.2,0,0.4-0.1,0.7-0.1c0.2,0,0.5,0,0.7,0c0.2,0,0.4,0,0.7,0c0.3,0,0.5,0,0.7,0.1v7.7
		c0.3-0.5,0.8-1,1.5-1.4c0.7-0.4,1.5-0.6,2.5-0.6c0.8,0,1.6,0.1,2.3,0.4c0.7,0.3,1.3,0.7,1.8,1.3c0.5,0.6,0.9,1.3,1.2,2.2
		s0.4,1.9,0.4,3.1c0,2.4-0.7,4.3-2,5.6c-1.4,1.4-3.3,2-5.8,2c-0.8,0-1.6-0.1-2.5-0.2c-0.8-0.2-1.6-0.3-2.1-0.5V7.9z M67.3,25.6
		c0.3,0.1,0.7,0.2,1,0.2c0.4,0,0.8,0.1,1.2,0.1c0.7,0,1.3-0.1,1.9-0.3c0.6-0.2,1.1-0.5,1.5-1c0.4-0.4,0.7-1,1-1.6
		c0.2-0.7,0.4-1.4,0.4-2.4c0-1.5-0.3-2.7-0.8-3.5s-1.4-1.3-2.6-1.3c-0.4,0-0.8,0.1-1.2,0.2c-0.4,0.1-0.8,0.4-1.1,0.7
		c-0.3,0.3-0.6,0.7-0.8,1.2c-0.2,0.5-0.3,1.1-0.3,1.8V25.6z"/>
	<path class="st0" d="M88,18.6c0-1.1-0.3-1.8-0.8-2.2s-1.3-0.6-2.4-0.6c-0.6,0-1.2,0-1.8,0.1c-0.6,0.1-1.1,0.2-1.6,0.4
		c-0.3-0.6-0.5-1.3-0.5-2.2c0.6-0.2,1.3-0.4,2-0.5c0.7-0.1,1.5-0.2,2.2-0.2c1.8,0,3.2,0.4,4.1,1.2s1.4,2.1,1.4,4v8.7
		c-0.6,0.1-1.4,0.3-2.3,0.5c-0.9,0.2-1.8,0.2-2.8,0.2c-0.9,0-1.7-0.1-2.4-0.2c-0.7-0.2-1.3-0.4-1.8-0.8c-0.5-0.4-0.9-0.8-1.2-1.4
		c-0.3-0.6-0.4-1.2-0.4-2c0-0.8,0.2-1.5,0.5-2.1c0.3-0.6,0.7-1.1,1.3-1.5s1.2-0.7,1.9-0.9c0.7-0.2,1.5-0.3,2.2-0.3
		c0.6,0,1.1,0,1.4,0c0.4,0,0.7,0.1,0.9,0.1V18.6z M88,21.3c-0.3,0-0.6-0.1-1-0.1c-0.4,0-0.8-0.1-1.1-0.1c-1.1,0-2,0.2-2.6,0.6
		s-0.9,1.1-0.9,1.9c0,0.5,0.1,1,0.3,1.3c0.2,0.3,0.5,0.5,0.7,0.7c0.3,0.2,0.6,0.3,1,0.3c0.4,0,0.7,0.1,1,0.1c0.4,0,0.8,0,1.3-0.1
		c0.4,0,0.8-0.1,1.2-0.2V21.3z"/>
	<path class="st0" d="M94.6,13.9c0.2,0,0.4-0.1,0.7-0.1c0.3,0,0.5,0,0.7,0c0.2,0,0.4,0,0.7,0c0.3,0,0.5,0,0.7,0.1v7.7
		c0,0.9,0.1,1.6,0.2,2.2c0.2,0.6,0.4,1,0.7,1.3s0.7,0.6,1.2,0.7c0.5,0.1,1,0.2,1.6,0.2c0.9,0,1.7-0.1,2.4-0.3V13.9
		c0.2,0,0.4-0.1,0.7-0.1c0.2,0,0.5,0,0.7,0c0.2,0,0.4,0,0.7,0c0.2,0,0.5,0,0.7,0.1v13.5c-0.6,0.2-1.4,0.4-2.3,0.5
		c-0.9,0.2-1.8,0.2-2.7,0.2c-0.9,0-1.7-0.1-2.5-0.2c-0.8-0.2-1.5-0.5-2.1-0.9c-0.6-0.5-1.1-1.1-1.4-2s-0.5-2-0.5-3.4V13.9z"/>
	<path class="st0" d="M110.4,13.9c0.2,0,0.4-0.1,0.6-0.1c0.2,0,0.4,0,0.6,0s0.4,0,0.6,0c0.2,0,0.4,0,0.5,0.1
		c0.1,0.3,0.1,0.6,0.2,1.1c0.1,0.4,0.1,0.8,0.1,1.1c0.4-0.6,0.9-1.2,1.5-1.6c0.6-0.5,1.4-0.7,2.4-0.7c0.1,0,0.3,0,0.4,0s0.3,0,0.4,0
		c0,0.2,0.1,0.3,0.1,0.5c0,0.2,0,0.4,0,0.6c0,0.2,0,0.4,0,0.7s-0.1,0.5-0.1,0.7c-0.1,0-0.3-0.1-0.4-0.1s-0.3,0-0.4,0
		c-0.5,0-1,0.1-1.4,0.2c-0.4,0.1-0.8,0.4-1.2,0.7c-0.4,0.3-0.6,0.8-0.8,1.4c-0.2,0.6-0.3,1.4-0.3,2.3v6.9c-0.2,0-0.4,0.1-0.7,0.1
		c-0.2,0-0.5,0-0.7,0s-0.4,0-0.7,0c-0.2,0-0.5,0-0.7-0.1V13.9z"/>
	<path class="st0" d="M122.1,21.5c0,1.5,0.4,2.6,1.2,3.4c0.8,0.7,1.9,1.1,3.3,1.1c1.3,0,2.5-0.2,3.7-0.7c0.1,0.3,0.3,0.6,0.4,1
		c0.1,0.4,0.1,0.8,0.2,1.2c-0.6,0.3-1.3,0.4-2,0.6c-0.7,0.1-1.5,0.2-2.4,0.2c-1.3,0-2.4-0.2-3.3-0.5c-0.9-0.4-1.7-0.9-2.2-1.5
		s-1-1.4-1.3-2.3s-0.4-1.8-0.4-2.9c0-1,0.1-2,0.4-2.9c0.3-0.9,0.7-1.7,1.2-2.3c0.5-0.7,1.2-1.2,2.1-1.6c0.8-0.4,1.8-0.6,2.9-0.6
		c1,0,1.8,0.2,2.5,0.5c0.7,0.3,1.3,0.8,1.8,1.3c0.5,0.6,0.9,1.3,1.1,2c0.3,0.8,0.4,1.6,0.4,2.6c0,0.3,0,0.5,0,0.8
		c0,0.3,0,0.5-0.1,0.7H122.1z M129,19.5c0-0.5-0.1-1-0.2-1.5c-0.1-0.5-0.3-0.9-0.6-1.2c-0.3-0.3-0.6-0.6-1-0.8
		c-0.4-0.2-0.9-0.3-1.5-0.3c-1.1,0-2,0.3-2.5,1c-0.6,0.7-0.9,1.6-1.1,2.8H129z"/>
	<path class="st0" d="M135.8,16h-2.1l-0.1-0.4l4.7-5.2h0.2v3.5h3.5c0.1,0.3,0.1,0.7,0.1,1c0,0.2,0,0.4,0,0.6c0,0.2,0,0.4-0.1,0.5
		h-3.5v6.4c0,0.8,0,1.4,0.1,1.8c0.1,0.5,0.2,0.8,0.3,1c0.2,0.2,0.4,0.4,0.6,0.5c0.3,0.1,0.6,0.1,1,0.1c0.3,0,0.6,0,0.9-0.1
		s0.5-0.1,0.7-0.2c0.1,0.4,0.2,0.7,0.2,1.1c0,0.4,0,0.7,0,1c-0.4,0.1-0.7,0.2-1.1,0.2c-0.4,0-0.8,0.1-1.3,0.1c-1.3,0-2.3-0.3-3.1-1
		s-1.1-1.7-1.1-3.2V16z"/>
</g>
<rect x="6.5" y="32.6" class="st1" width="136" height="4"/>
</svg>
