<?xml version="1.0" encoding="utf-8"?>
<!-- Generator: Adobe Illustrator 19.2.1, SVG Export Plug-In . SVG Version: 6.00 Build 0)  -->
<svg version="1.1" id="Calque_1" xmlns="http://www.w3.org/2000/svg" xmlns:xlink="http://www.w3.org/1999/xlink" x="0px" y="0px"
	 viewBox="0 0 252 90" style="enable-background:new 0 0 252 90;" xml:space="preserve">
<style type="text/css">
	.st0{fill:#7C7C7C;}
	.st1{fill:#F00900;}
	.st2{fill:#3F3F3F;}
	.st3{fill:#999999;}
</style>
<g>
	<g>
		<path class="st0" d="M71.4,60.9h-5.3v-8.3h1.6v6.9h3.6V60.9z"/>
		<path class="st0" d="M70.9,52.6h1.4l-0.4,2.6h-0.9V52.6z"/>
		<path class="st0" d="M73.8,52.6h1.6v8.3h-1.6V52.6z"/>
		<path class="st0" d="M79.1,56.5l-0.7-1.3h-0.1l0.2,1.3v4.3H77v-8.4h1.2l3.1,4.4l0.6,1.3H82l-0.2-1.3v-4.4h1.5v8.4h-1.2L79.1,56.5z
			"/>
		<path class="st0" d="M87.5,57.4l0.2,1.4h0.1l0.2-1.4l1.6-4.9h1.7l-3.1,8.4h-1.2L84,52.6h1.9L87.5,57.4z"/>
		<path class="st0" d="M91.9,52.6h4.9V54h-3.3v1.9h3v1.4h-3v2h3.4v1.4h-5V52.6z"/>
		<path class="st0" d="M101.7,58.6c0-0.3-0.1-0.5-0.3-0.6c-0.2-0.2-0.4-0.3-0.7-0.4c-0.3-0.1-0.6-0.3-0.9-0.4
			c-0.3-0.1-0.6-0.3-0.9-0.5c-0.3-0.2-0.5-0.5-0.7-0.8c-0.2-0.3-0.3-0.7-0.3-1.2c0-0.4,0.1-0.8,0.2-1.1c0.1-0.3,0.3-0.5,0.6-0.7
			s0.5-0.3,0.9-0.4c0.3-0.1,0.7-0.1,1.1-0.1c0.5,0,0.9,0,1.4,0.1c0.4,0.1,0.8,0.2,1.1,0.4l-0.5,1.4c-0.2-0.1-0.4-0.2-0.8-0.3
			c-0.3-0.1-0.7-0.1-1.1-0.1c-0.4,0-0.7,0.1-0.9,0.2c-0.2,0.2-0.3,0.4-0.3,0.6c0,0.2,0.1,0.4,0.3,0.6c0.2,0.2,0.4,0.3,0.7,0.4
			c0.3,0.1,0.6,0.3,0.9,0.4c0.3,0.1,0.6,0.3,0.9,0.5c0.3,0.2,0.5,0.5,0.7,0.7c0.2,0.3,0.3,0.7,0.3,1.1c0,0.4-0.1,0.8-0.2,1.1
			c-0.1,0.3-0.4,0.6-0.6,0.8c-0.3,0.2-0.6,0.4-1,0.5c-0.4,0.1-0.8,0.2-1.2,0.2c-0.6,0-1.1-0.1-1.6-0.2c-0.5-0.1-0.8-0.2-1-0.3
			l0.5-1.4c0.1,0,0.2,0.1,0.3,0.2c0.1,0.1,0.3,0.1,0.5,0.2c0.2,0,0.4,0.1,0.6,0.1c0.2,0,0.4,0,0.6,0c0.5,0,0.9-0.1,1.1-0.2
			C101.6,59.2,101.7,59,101.7,58.6z"/>
		<path class="st0" d="M110.3,54h-2.4v6.9h-1.6V54h-2.4v-1.4h6.5V54z"/>
		<path class="st0" d="M111.3,52.6h1.6v8.3h-1.6V52.6z"/>
		<path class="st0" d="M118.2,58.6c0-0.3-0.1-0.5-0.3-0.6c-0.2-0.2-0.4-0.3-0.7-0.4c-0.3-0.1-0.6-0.3-0.9-0.4
			c-0.3-0.1-0.6-0.3-0.9-0.5c-0.3-0.2-0.5-0.5-0.7-0.8c-0.2-0.3-0.3-0.7-0.3-1.2c0-0.4,0.1-0.8,0.2-1.1c0.1-0.3,0.3-0.5,0.6-0.7
			s0.5-0.3,0.9-0.4c0.3-0.1,0.7-0.1,1.1-0.1c0.5,0,0.9,0,1.4,0.1c0.4,0.1,0.8,0.2,1.1,0.4l-0.5,1.4c-0.2-0.1-0.4-0.2-0.8-0.3
			c-0.3-0.1-0.7-0.1-1.1-0.1c-0.4,0-0.7,0.1-0.9,0.2c-0.2,0.2-0.3,0.4-0.3,0.6c0,0.2,0.1,0.4,0.3,0.6c0.2,0.2,0.4,0.3,0.7,0.4
			c0.3,0.1,0.6,0.3,0.9,0.4c0.3,0.1,0.6,0.3,0.9,0.5c0.3,0.2,0.5,0.5,0.7,0.7c0.2,0.3,0.3,0.7,0.3,1.1c0,0.4-0.1,0.8-0.2,1.1
			c-0.1,0.3-0.4,0.6-0.6,0.8c-0.3,0.2-0.6,0.4-1,0.5c-0.4,0.1-0.8,0.2-1.2,0.2c-0.6,0-1.1-0.1-1.6-0.2c-0.5-0.1-0.8-0.2-1-0.3
			l0.5-1.4c0.1,0,0.2,0.1,0.3,0.2c0.1,0.1,0.3,0.1,0.5,0.2c0.2,0,0.4,0.1,0.6,0.1c0.2,0,0.4,0,0.6,0c0.5,0,0.9-0.1,1.1-0.2
			C118,59.2,118.2,59,118.2,58.6z"/>
		<path class="st0" d="M124.4,58.6c0-0.3-0.1-0.5-0.3-0.6c-0.2-0.2-0.4-0.3-0.7-0.4c-0.3-0.1-0.6-0.3-0.9-0.4
			c-0.3-0.1-0.6-0.3-0.9-0.5c-0.3-0.2-0.5-0.5-0.7-0.8c-0.2-0.3-0.3-0.7-0.3-1.2c0-0.4,0.1-0.8,0.2-1.1c0.1-0.3,0.3-0.5,0.6-0.7
			s0.5-0.3,0.9-0.4s0.7-0.1,1.1-0.1c0.5,0,0.9,0,1.4,0.1c0.4,0.1,0.8,0.2,1.1,0.4l-0.5,1.4c-0.2-0.1-0.4-0.2-0.8-0.3
			c-0.3-0.1-0.7-0.1-1.1-0.1c-0.4,0-0.7,0.1-0.9,0.2c-0.2,0.2-0.3,0.4-0.3,0.6c0,0.2,0.1,0.4,0.3,0.6c0.2,0.2,0.4,0.3,0.7,0.4
			c0.3,0.1,0.6,0.3,0.9,0.4c0.3,0.1,0.6,0.3,0.9,0.5c0.3,0.2,0.5,0.5,0.7,0.7c0.2,0.3,0.3,0.7,0.3,1.1c0,0.4-0.1,0.8-0.2,1.1
			c-0.1,0.3-0.4,0.6-0.6,0.8c-0.3,0.2-0.6,0.4-1,0.5c-0.4,0.1-0.8,0.2-1.2,0.2c-0.6,0-1.1-0.1-1.6-0.2c-0.5-0.1-0.8-0.2-1-0.3
			l0.5-1.4c0.1,0,0.2,0.1,0.3,0.2c0.1,0.1,0.3,0.1,0.5,0.2c0.2,0,0.4,0.1,0.6,0.1c0.2,0,0.4,0,0.6,0c0.5,0,0.9-0.1,1.1-0.2
			C124.3,59.2,124.4,59,124.4,58.6z"/>
		<path class="st0" d="M127.2,52.6h4.9V54h-3.3v1.9h3v1.4h-3v2h3.4v1.4h-5V52.6z"/>
		<path class="st0" d="M139.8,56.6l0.2-1.7h-0.1l-0.5,1.3l-1.8,3.1h-0.5l-1.9-3.1l-0.5-1.3h-0.1l0.2,1.6v4.3h-1.5v-8.3h1.5l2.2,3.8
			l0.4,1h0l0.4-1l2.1-3.8h1.5v8.3h-1.6V56.6z"/>
		<path class="st0" d="M142.8,52.6h4.9V54h-3.3v1.9h3v1.4h-3v2h3.4v1.4h-5V52.6z"/>
		<path class="st0" d="M151.1,56.5l-0.7-1.3h-0.1l0.2,1.3v4.3H149v-8.4h1.2l3.1,4.4l0.6,1.3h0.1l-0.2-1.3v-4.4h1.5v8.4h-1.2
			L151.1,56.5z"/>
		<path class="st0" d="M162.8,54h-2.4v6.9h-1.6V54h-2.4v-1.4h6.5V54z"/>
		<path class="st0" d="M166.3,52.6h1.6v8.3h-1.6V52.6z"/>
		<path class="st0" d="M176,56.6l0.2-1.7h-0.1l-0.5,1.3l-1.8,3.1h-0.5l-1.9-3.1l-0.5-1.3h-0.1l0.2,1.6v4.3h-1.5v-8.3h1.5l2.2,3.8
			l0.4,1h0l0.4-1l2.1-3.8h1.5v8.3H176V56.6z"/>
		<path class="st0" d="M185.5,56.6l0.2-1.7h-0.1l-0.5,1.3l-1.8,3.1h-0.5l-1.9-3.1l-0.5-1.3h-0.1l0.2,1.6v4.3H179v-8.3h1.5l2.2,3.8
			l0.4,1h0l0.4-1l2.1-3.8h1.5v8.3h-1.6V56.6z"/>
		<path class="st0" d="M188.2,56.7c0-1.4,0.3-2.5,0.9-3.2c0.6-0.7,1.5-1.1,2.6-1.1c0.6,0,1.1,0.1,1.6,0.3c0.4,0.2,0.8,0.5,1.1,0.9
			c0.3,0.4,0.5,0.8,0.7,1.4c0.1,0.5,0.2,1.1,0.2,1.8c0,1.4-0.3,2.5-0.9,3.2c-0.6,0.7-1.5,1.1-2.6,1.1c-0.6,0-1.1-0.1-1.6-0.3
			c-0.4-0.2-0.8-0.5-1.1-0.9c-0.3-0.4-0.5-0.8-0.6-1.4C188.3,57.9,188.2,57.4,188.2,56.7z M190,56.7c0,0.4,0,0.8,0.1,1.2
			c0.1,0.4,0.2,0.7,0.3,0.9c0.1,0.3,0.3,0.5,0.6,0.6c0.2,0.1,0.5,0.2,0.8,0.2c0.6,0,1-0.2,1.3-0.7c0.3-0.5,0.5-1.2,0.5-2.2
			c0-0.4,0-0.8-0.1-1.1c-0.1-0.3-0.2-0.7-0.3-0.9c-0.1-0.3-0.3-0.5-0.6-0.6c-0.2-0.1-0.5-0.2-0.8-0.2c-0.6,0-1,0.2-1.3,0.7
			C190.1,55,190,55.7,190,56.7z"/>
		<path class="st0" d="M202.1,54.5c0,0.2,0,0.4-0.1,0.6c-0.1,0.2-0.1,0.4-0.3,0.6c-0.1,0.2-0.3,0.3-0.5,0.5
			c-0.2,0.1-0.4,0.2-0.7,0.3v0.1c0.2,0,0.5,0.1,0.7,0.2c0.2,0.1,0.4,0.2,0.6,0.4c0.2,0.2,0.3,0.4,0.4,0.6c0.1,0.2,0.1,0.5,0.1,0.8
			c0,0.4-0.1,0.8-0.3,1.1c-0.2,0.3-0.4,0.6-0.7,0.8c-0.3,0.2-0.7,0.3-1,0.4c-0.4,0.1-0.8,0.1-1.2,0.1c-0.1,0-0.3,0-0.5,0
			c-0.2,0-0.4,0-0.7,0c-0.2,0-0.5,0-0.7-0.1c-0.2,0-0.5-0.1-0.7-0.1v-8.2c0.2,0,0.3,0,0.5-0.1c0.2,0,0.4,0,0.6-0.1
			c0.2,0,0.4,0,0.7,0c0.2,0,0.5,0,0.7,0c0.4,0,0.8,0,1.1,0.1c0.4,0.1,0.7,0.2,1,0.3c0.3,0.2,0.5,0.4,0.7,0.6
			C202,53.7,202.1,54.1,202.1,54.5z M198.6,56c0.1,0,0.2,0,0.4,0c0.1,0,0.3,0,0.4,0c0.3-0.1,0.6-0.2,0.8-0.4
			c0.2-0.2,0.3-0.4,0.3-0.7c0-0.2,0-0.4-0.1-0.5c-0.1-0.1-0.2-0.2-0.3-0.3c-0.1-0.1-0.3-0.1-0.4-0.2c-0.2,0-0.3,0-0.5,0
			c-0.2,0-0.4,0-0.6,0s-0.3,0-0.4,0V56H198.6z M199.1,59.6c0.2,0,0.4,0,0.6-0.1c0.2,0,0.4-0.1,0.5-0.2c0.1-0.1,0.3-0.2,0.3-0.4
			c0.1-0.1,0.1-0.3,0.1-0.5c0-0.3-0.1-0.5-0.2-0.6c-0.1-0.1-0.2-0.3-0.4-0.3c-0.2-0.1-0.4-0.1-0.6-0.2c-0.2,0-0.4,0-0.6,0H198v2.3
			c0,0,0.1,0,0.2,0c0.1,0,0.2,0,0.3,0c0.1,0,0.2,0,0.3,0C198.9,59.6,199,59.6,199.1,59.6z"/>
		<path class="st0" d="M203.6,52.6h1.6v8.3h-1.6V52.6z"/>
		<path class="st0" d="M212.1,60.9h-5.3v-8.3h1.6v6.9h3.6V60.9z"/>
		<path class="st0" d="M213.1,52.6h1.6v8.3h-1.6V52.6z"/>
		<path class="st0" d="M216.4,52.6h4.9V54H218v1.9h3v1.4h-3v2h3.4v1.4h-5V52.6z"/>
		<path class="st0" d="M222.6,52.6c0.2,0,0.4-0.1,0.6-0.1c0.2,0,0.4,0,0.6-0.1c0.2,0,0.4,0,0.6,0c0.2,0,0.4,0,0.5,0
			c0.4,0,0.8,0,1.1,0.1c0.4,0.1,0.7,0.2,1,0.4c0.3,0.2,0.5,0.4,0.7,0.7c0.2,0.3,0.3,0.7,0.3,1.1c0,0.7-0.2,1.2-0.5,1.7
			c-0.3,0.4-0.7,0.7-1.3,0.9l0.6,0.4l1.9,3.2h-1.9l-1.9-3.3l-0.9-0.2v3.4h-1.6V52.6z M225,53.9c-0.2,0-0.3,0-0.5,0
			c-0.2,0-0.3,0-0.4,0v2.4h0.7c0.5,0,0.8-0.1,1.1-0.3c0.3-0.2,0.4-0.5,0.4-1c0-0.4-0.1-0.6-0.3-0.8C225.8,54,225.5,53.9,225,53.9z"
			/>
	</g>
	<g>
		<polygon class="st1" points="28.8,31.2 22.9,47.5 39.3,47.5 45.1,31.2 		"/>
		<polygon class="st1" points="36.1,10.9 30.2,27.2 46.6,27.2 52.4,10.9 		"/>
		<polygon class="st1" points="56.4,10.9 50.6,27.2 66.9,27.2 72.8,10.9 		"/>
		<polygon class="st1" points="49.1,31.2 43.3,47.5 59.6,47.5 65.5,31.2 		"/>
	</g>
	<g>
		<path class="st2" d="M83.1,40.9h-9.2l-2.3,6.6h-5.9l10.8-30.2h4.3l10.8,30.2h-6.2L83.1,40.9z M75.4,36.2h6.4l-2.2-6.7l-0.9-4.7
			h-0.2l-0.9,4.8L75.4,36.2z"/>
		<path class="st2" d="M93.8,17.5c0.6-0.1,1.3-0.2,2-0.2c0.7-0.1,1.5-0.1,2.3-0.1c0.8,0,1.6,0,2.3-0.1c0.7,0,1.4,0,2,0
			c2.6,0,4.9,0.4,6.7,1.1c1.9,0.7,3.4,1.8,4.5,3.1c1.2,1.3,2,2.9,2.5,4.8c0.5,1.8,0.8,3.9,0.8,6.1c0,2-0.3,3.9-0.8,5.8
			c-0.5,1.9-1.4,3.5-2.5,5c-1.2,1.4-2.8,2.6-4.7,3.5c-1.9,0.9-4.3,1.3-7.2,1.3c-0.5,0-1.1,0-1.8,0c-0.8,0-1.5-0.1-2.3-0.1
			c-0.8,0-1.6-0.1-2.3-0.1c-0.7,0-1.3-0.1-1.7-0.1V17.5z M103,22.2c-0.6,0-1.3,0-1.9,0c-0.6,0-1.1,0.1-1.4,0.1v19.9
			c0.1,0,0.3,0,0.6,0.1c0.3,0,0.6,0,0.9,0c0.3,0,0.6,0,0.9,0c0.3,0,0.5,0,0.6,0c1.6,0,3-0.3,4.1-0.9c1.1-0.6,2-1.4,2.6-2.3
			c0.6-1,1.1-2.1,1.3-3.3c0.3-1.3,0.4-2.6,0.4-3.9c0-1.2-0.1-2.3-0.3-3.5c-0.2-1.2-0.6-2.2-1.3-3.2c-0.6-0.9-1.4-1.7-2.5-2.3
			C105.9,22.5,104.6,22.2,103,22.2z"/>
		<path class="st2" d="M119.9,32.3c0-5,1.1-8.8,3.3-11.4c2.2-2.7,5.3-4,9.3-4c2.1,0,4,0.4,5.6,1.1c1.6,0.7,2.9,1.8,3.9,3.1
			c1,1.4,1.8,3,2.3,4.9c0.5,1.9,0.8,4,0.8,6.3c0,5-1.1,8.8-3.3,11.4c-2.2,2.7-5.3,4-9.3,4c-2.2,0-4-0.4-5.6-1.1
			c-1.6-0.7-2.9-1.8-3.9-3.1c-1-1.4-1.8-3-2.3-4.9C120.2,36.8,119.9,34.7,119.9,32.3z M126,32.3c0,1.5,0.1,2.9,0.4,4.1
			c0.3,1.3,0.6,2.3,1.2,3.2c0.5,0.9,1.2,1.6,2,2.1c0.8,0.5,1.8,0.8,2.9,0.8c2.1,0,3.7-0.8,4.8-2.4c1.1-1.6,1.7-4.2,1.7-7.9
			c0-1.4-0.1-2.8-0.4-4c-0.2-1.2-0.6-2.3-1.1-3.3c-0.5-0.9-1.2-1.7-2-2.2c-0.8-0.5-1.8-0.8-3-0.8c-2.1,0-3.7,0.8-4.8,2.5
			C126.6,26.2,126,28.8,126,32.3z"/>
		<path class="st2" d="M171.9,31.8l0.6-5.9h-0.3l-1.8,4.8l-6.3,11.1h-1.9l-6.7-11.1l-1.9-4.7h-0.2l0.8,5.9v15.5h-5.5V17.5h5.3
			l7.9,13.6l1.4,3.4h0.2L165,31l7.5-13.5h5.3v29.7h-5.8V31.8z"/>
		<path class="st2" d="M181.5,32.3c0-5,1.1-8.8,3.3-11.4c2.2-2.7,5.3-4,9.3-4c2.1,0,4,0.4,5.6,1.1c1.6,0.7,2.9,1.8,3.9,3.1
			c1,1.4,1.8,3,2.3,4.9c0.5,1.9,0.8,4,0.8,6.3c0,5-1.1,8.8-3.3,11.4c-2.2,2.7-5.3,4-9.3,4c-2.2,0-4-0.4-5.6-1.1
			c-1.6-0.7-2.9-1.8-3.9-3.1c-1-1.4-1.8-3-2.3-4.9C181.7,36.8,181.5,34.7,181.5,32.3z M187.6,32.3c0,1.5,0.1,2.9,0.4,4.1
			c0.3,1.3,0.6,2.3,1.2,3.2c0.5,0.9,1.2,1.6,2,2.1c0.8,0.5,1.8,0.8,2.9,0.8c2.1,0,3.7-0.8,4.8-2.4c1.1-1.6,1.7-4.2,1.7-7.9
			c0-1.4-0.1-2.8-0.4-4c-0.2-1.2-0.6-2.3-1.1-3.3c-0.5-0.9-1.2-1.7-2-2.2c-0.8-0.5-1.8-0.8-3-0.8c-2.1,0-3.7,0.8-4.8,2.5
			C188.2,26.2,187.6,28.8,187.6,32.3z"/>
		<path class="st2" d="M223.3,39.2c0-0.9-0.3-1.6-1-2.2c-0.7-0.6-1.5-1.1-2.5-1.5c-1-0.5-2.1-0.9-3.3-1.4c-1.2-0.5-2.3-1.1-3.3-1.8
			c-1-0.7-1.8-1.6-2.5-2.7c-0.7-1.1-1-2.4-1-4.1c0-1.4,0.2-2.7,0.7-3.8c0.5-1.1,1.2-1.9,2.1-2.7c0.9-0.7,1.9-1.2,3.2-1.6
			c1.2-0.3,2.6-0.5,4.1-0.5c1.7,0,3.4,0.1,4.9,0.4c1.5,0.3,2.8,0.7,3.8,1.3l-1.8,4.9c-0.6-0.4-1.6-0.8-2.8-1.1
			c-1.2-0.3-2.6-0.5-4-0.5c-1.4,0-2.4,0.3-3.1,0.8c-0.7,0.5-1.1,1.3-1.1,2.2c0,0.8,0.3,1.6,1,2.1c0.7,0.6,1.5,1.1,2.5,1.6
			c1,0.5,2.1,1,3.3,1.5c1.2,0.5,2.3,1.1,3.3,1.8c1,0.7,1.8,1.6,2.5,2.7c0.7,1.1,1,2.4,1,4c0,1.6-0.3,3-0.8,4.1
			c-0.5,1.1-1.3,2.1-2.2,2.9c-0.9,0.8-2.1,1.3-3.4,1.7c-1.3,0.4-2.8,0.6-4.4,0.6c-2.1,0-4-0.2-5.6-0.6c-1.6-0.4-2.8-0.8-3.6-1.2
			l1.9-5c0.3,0.2,0.7,0.4,1.2,0.6c0.5,0.2,1.1,0.4,1.7,0.6c0.6,0.2,1.3,0.3,2,0.4c0.7,0.1,1.4,0.2,2.1,0.2c1.7,0,3-0.3,4-0.9
			C222.8,41.3,223.3,40.4,223.3,39.2z"/>
	</g>
	<rect x="24.3" y="52" class="st3" width="37.3" height="8.9"/>
</g>
</svg>
